# xmcd CD database file
#
# Track frame offsets:
#	150
#	18600
#	42272
#	64975
#	87931
#	118434
#	146868
#	158817
#	176800
#	191617
#	214830
#	230437
#	250824
#	269960
#	296499
#	314263
#
# Disc length: 4449 seconds
#
# Revision: 0
# Processed by: cddbd v1.5.2PL0 Copyright (c) Steve Scherf et al.
# Submitted via: CDex 1.70beta2
#
DISCID=01115f10
DTITLE=Georgie Fame - EVERY KNOCK IS A BOOST
DYEAR=2008
DGENRE=Jazz
TTITLE0=COOL CAT BLUES
TTITLE1=EVERY KNOCK IS A BOOST
TTITLE2=IT SHOULD HAVE BEEN ME
TTITLE3=YEH YEH(YEAH YEAH)
TTITLE4=MOONDANCE
TTITLE5=CAT’S EYES
TTITLE6=LITTLE PONY
TTITLE7=ROCKING CHAIR
TTITLE8=I LOVE THE LIFE I LIVE
TTITLE9=GEORGIA(ON MY MIND)
TTITLE10=MAYBE IT’S BECAUSE Of LOVE
TTITLE11=HOW LONG HAS THIS BEEN GOING ON
TTITLE12=JUMPIN’ WITH SYMPHONY SID
TTITLE13=EVERYBODY CRYIN’ MERCY
TTITLE14=DAWN YAWN
TTITLE15=THE BLUES AND ME
EXTD=YEAR: 2008
EXTT0=
EXTT1=
EXTT2=
EXTT3=
EXTT4=
EXTT5=
EXTT6=
EXTT7=
EXTT8=
EXTT9=
EXTT10=
EXTT11=
EXTT12=
EXTT13=
EXTT14=
EXTT15=
PLAYORDER=
